<?xml version="1.0" standalone="no"?><svg xmlns="http://www.w3.org/2000/svg" viewBox="0 0 1440 320"><path fill="#f3f4f5" fill-opacity="1" d="M0,64L24,74.7C48,85,96,107,144,112C192,117,240,107,288,133.3C336,160,384,224,432,213.3C480,203,528,117,576,80C624,43,672,53,720,80C768,107,816,149,864,165.3C912,181,960,171,1008,160C1056,149,1104,139,1152,138.7C1200,139,1248,149,1296,154.7C1344,160,1392,160,1416,160L1440,160L1440,0L1416,0C1392,0,1344,0,1296,0C1248,0,1200,0,1152,0C1104,0,1056,0,1008,0C960,0,912,0,864,0C816,0,768,0,720,0C672,0,624,0,576,0C528,0,480,0,432,0C384,0,336,0,288,0C240,0,192,0,144,0C96,0,48,0,24,0L0,0Z"></path></svg>