<?xml version="1.0" standalone="no"?><svg xmlns="http://www.w3.org/2000/svg" viewBox="0 0 1440 320"><path fill="#0099ff" fill-opacity="1" d="M0,32L26.7,42.7C53.3,53,107,75,160,101.3C213.3,128,267,160,320,181.3C373.3,203,427,213,480,197.3C533.3,181,587,139,640,106.7C693.3,75,747,53,800,80C853.3,107,907,181,960,197.3C1013.3,213,1067,171,1120,165.3C1173.3,160,1227,192,1280,192C1333.3,192,1387,160,1413,144L1440,128L1440,320L1413.3,320C1386.7,320,1333,320,1280,320C1226.7,320,1173,320,1120,320C1066.7,320,1013,320,960,320C906.7,320,853,320,800,320C746.7,320,693,320,640,320C586.7,320,533,320,480,320C426.7,320,373,320,320,320C266.7,320,213,320,160,320C106.7,320,53,320,27,320L0,320Z"></path></svg>