<?xml version="1.0" standalone="no"?><svg xmlns="http://www.w3.org/2000/svg" viewBox="0 0 1440 320"><path fill="#343a40" fill-opacity="1" d="M0,0L24,21.3C48,43,96,85,144,85.3C192,85,240,43,288,58.7C336,75,384,149,432,186.7C480,224,528,224,576,186.7C624,149,672,75,720,80C768,85,816,171,864,192C912,213,960,171,1008,128C1056,85,1104,43,1152,64C1200,85,1248,171,1296,192C1344,213,1392,171,1416,149.3L1440,128L1440,0L1416,0C1392,0,1344,0,1296,0C1248,0,1200,0,1152,0C1104,0,1056,0,1008,0C960,0,912,0,864,0C816,0,768,0,720,0C672,0,624,0,576,0C528,0,480,0,432,0C384,0,336,0,288,0C240,0,192,0,144,0C96,0,48,0,24,0L0,0Z"></path></svg>