<?xml version="1.0" standalone="no"?><svg xmlns="http://www.w3.org/2000/svg" viewBox="0 0 1440 320"><path fill="#f3f4f5" fill-opacity="1" d="M0,0L24,32C48,64,96,128,144,165.3C192,203,240,213,288,186.7C336,160,384,96,432,69.3C480,43,528,53,576,85.3C624,117,672,171,720,192C768,213,816,203,864,181.3C912,160,960,128,1008,144C1056,160,1104,224,1152,229.3C1200,235,1248,181,1296,170.7C1344,160,1392,192,1416,208L1440,224L1440,320L1416,320C1392,320,1344,320,1296,320C1248,320,1200,320,1152,320C1104,320,1056,320,1008,320C960,320,912,320,864,320C816,320,768,320,720,320C672,320,624,320,576,320C528,320,480,320,432,320C384,320,336,320,288,320C240,320,192,320,144,320C96,320,48,320,24,320L0,320Z"></path></svg>